# xmcd CD database file
# Copyright (C) 1993-1998 Ti Kan
# 
# Track frame offsets:
#     150
#     21240
#     36962
#     52075
#     65107
#     79827
#     90620
#     97875
#     114790
#     130157
#     151687
#     160690
#     175340
#     200835
# 
# Disc length: 2849 seconds
# 
# Revision: 1
# Processed by: cddbd v1.4b41PL1 Copyright (c) Steve Scherf et al.
# Submitted via: DiscPlay 4.0.4
# 
DISCID=b30b1f0e
DTITLE=Ray Charles - The World of Ray Charles  Vol. 3
DYEAR=1900
DGENRE=
TTITLE0=Ev'ry Time We Say Goodbye
TTITLE1=You And I
TTITLE2=Intro: Goodbye - We'll Be Together Again
TTITLE3=People Will Say We're In Love
TTITLE4=Cocktails For Two
TTITLE5=Side By Side
TTITLE6=Together
TTITLE7=For All We Know
TTITLE8=Takes Two To Tango
TTITLE9=Alone Together
TTITLE10=Just You, Just Me
TTITLE11=But On The Other Hand Baby
TTITLE12=I Never See Maggie Alone
TTITLE13=I Like To Hear It Sometime
EXTD=
EXTT0=
EXTT1=
EXTT2=
EXTT3=
EXTT4=
EXTT5=
EXTT6=
EXTT7=
EXTT8=
EXTT9=
EXTT10=
EXTT11=
EXTT12=
EXTT13=
PLAYORDER=
